{"title":"The American-AC3-Eng.Ned Subs-BRRip 2010 TBS","uid":6022549,"size":1567134181,"categoryP":"video","categoryS":"movies","magnet":"?xt=urn:btih:dba373ab8ba1cc3f790c53045e1bad79b420ea14&amp;dn=The+American-AC3-Eng.Ned+Subs-BRRip+2010+TBS&amp;tr=udp%3A%2F%2Ftracker.openbittorrent.com%3A80&amp;tr=udp%3A%2F%2Fopen.demonii.com%3A1337&amp;tr=udp%3A%2F%2Ftracker.coppersurfer.tk%3A6969&amp;tr=udp%3A%2F%2Fexodus.desync.com%3A6969","seeders":0,"leechers":1,"uploader":"FatFreddy30","files":-1,"time":1291844994,"description":"An assassin hides out in Italy for one last assignment.\n &lt;a href=&quot;\nhttp://www.imdb.com/title/tt1440728/&quot; rel=&quot;nofollow&quot; target=&quot;_NEW&quot;&gt;\nhttp://www.imdb.com/title/tt1440728/&lt;/a&gt;\n\nSubs: Dutch, English.\n\nJack (George Clooney) is een huurmoordenaar die, nadat een klus in Zweden uit de hand is gelopen, aan zijn werkgever Larry zweert dat zijn volgende klus tevens zijn laatste zal zijn. Voor deze laatste klus, waar zijn opdracht gespecificeerd wordt door de Belgische Mathilde (Thekla Reuten), duikt hij onder op het Italiaanse platteland, in een idyllisch klein stadje. Ondanks het feit dat Jack normaliter een afkeer heeft van menselijk contact, maakt hij kennis met een lokale priester en laat hij zich meeslepen in een romance met de mooie Clara. Zet Jack zo zijn laatste klus en nog belangrijker, zijn eigen veiligheid op het spel?\n &lt;a href=&quot;\nhttp://www.moviemeter.nl/film/61477&quot; rel=&quot;nofollow&quot; target=&quot;_NEW&quot;&gt;\nhttp://www.moviemeter.nl/film/61477&lt;/a&gt;\n\nOndertitels: Engels, Nederlands.\n\nGeneral\nComplete name                    : The American-AC3-Eng.Ned Subs-BRRip 2010\\The American-AC3-Eng.Ned Subs-BRRip 2010.avi\nFormat                           : AVI\nFormat/Info                      : Audio Video Interleave\nFile size                        : 1.46 GiB\nDuration                         : 1h 40mn\nOverall bit rate                 : 2 078 Kbps\nWriting application              : VirtualDubMod 1.5.4.1 (build 2178/release)\nWriting library                  : VirtualDubMod build 2178/release\nSource                           : The.American.2010.720p.BluRay.DTS.x264-DNL\n\nVideo\nID                               : 0\nFormat                           : MPEG-4 Visual\nFormat profile                   : Simple@L3\nFormat settings, BVOP            : No\nFormat settings, QPel            : No\nFormat settings, GMC             : No warppoints\nFormat settings, Matrix          : Default (H.263)\nCodec ID                         : XVID\nCodec ID/Hint                    : XviD\nDuration                         : 1h 40mn\nBit rate                         : 1 620 Kbps\nWidth                            : 720 pixels\nHeight                           : 304 pixels\nDisplay aspect ratio             : 2.35:1\nFrame rate                       : 25.000 fps\nResolution                       : 8 bits\nColorimetry                      : 4:2:0\nScan type                        : Progressive\nBits/(Pixel*Frame)               : 0.296\nStream size                      : 1.14 GiB (78%)\nWriting library                  : XviD 1.1.2 (UTC 2006-11-01)\n\nAudio\nID                               : 1\nFormat                           : AC-3\nFormat/Info                      : Audio Coding 3\nCodec ID                         : 2000\nDuration                         : 1h 40mn\nBit rate mode                    : Constant\nBit rate                         : 448 Kbps\nChannel(s)                       : 6 channels\nChannel positions                : Front: L C R, Surround: L R, LFE\nSampling rate                    : 48.0 KHz\nStream size                      : 322 MiB (22%)\nAlignment                        : Split accross interleaves\nInterleave, duration             : 40 ms (1.00 video frame)\nInterleave, preload duration     : 500 ms\n\nThanks to Simply ReleaseS Toppers for the Dutch subs.\n\nBlackbeard  TBS.","torrent":{"xt":"urn:btih:dba373ab8ba1cc3f790c53045e1bad79b420ea14","amp;dn":"The+American-AC3-Eng.Ned+Subs-BRRip+2010+TBS","amp;tr":["udp%3A%2F%2Ftracker.openbittorrent.com%3A80","udp%3A%2F%2Fopen.demonii.com%3A1337","udp%3A%2F%2Ftracker.coppersurfer.tk%3A6969","udp%3A%2F%2Fexodus.desync.com%3A6969"],"infoHash":"dba373ab8ba1cc3f790c53045e1bad79b420ea14","infoHashBuffer":{"type":"Buffer","data":[219,163,115,171,139,161,204,63,121,12,83,4,94,27,173,121,180,32,234,20]},"announce":[],"urlList":[]}}